<?xml version="1.0" encoding="utf-8"?>
<!-- Generator: Adobe Illustrator 16.0.0, SVG Export Plug-In . SVG Version: 6.00 Build 0)  -->
<!DOCTYPE svg PUBLIC "-//W3C//DTD SVG 1.1//EN" "http://www.w3.org/Graphics/SVG/1.1/DTD/svg11.dtd">
<svg version="1.1" id="Layer_1" xmlns="http://www.w3.org/2000/svg" xmlns:xlink="http://www.w3.org/1999/xlink" x="0px" y="0px"
	 width="154.289px" height="47.756px" viewBox="0 0 154.289 47.756" enable-background="new 0 0 154.289 47.756"
	 xml:space="preserve">
<g>
	<path id="Red_Stuff_1_" fill="#F23731" d="M46.081,37.282c-0.45,1.636-1.089,2.74-1.089,2.74H155v-2.74
		C155,37.282,46.909,37.282,46.081,37.282z M19.128,45.251c-9.169,0-16.602-7.496-16.602-16.746c0-5.287,2.433-10,6.228-13.068
		c-0.515-0.524-0.996-1.235-1.246-2.177C2.945,16.77,0,22.308,0,28.542c0,10.612,8.525,19.214,19.047,19.214
		c7.514,0,14.009-4.39,17.107-10.765l-2.728,0.019C30.538,41.941,25.218,45.251,19.128,45.251z"/>
	<path id="Blue_Stuff_1_" fill="#003979" d="M77.209,18.51c-0.806-0.226-1.612-0.354-2.999-0.354c-4.677,0-7.063,3.225-7.063,8.515
		c0,6.321,3.064,8.45,7.128,8.45c1.548,0,2.612-0.517,3.29-1.097l0.16,0.709h4.71V12.092h-5.226V18.51z M77.209,30.443
		c-0.58,0.548-1.258,0.903-2.096,0.903c-1.646,0-2.742-0.678-2.742-4.645c0-3.483,0.613-4.645,2.549-4.645
		c0.742,0,1.483,0.161,2.289,0.419V30.443z M54.73,12.092l-0.002,0.002h-1.934v3.821h0.617l-6.487,18.817h5.321l1.613-5.289h6.74
		l1.517,5.289h5.612l-7.516-22.641H54.73z M55.117,25.315l2.193-7.225l2.096,7.225H55.117z M104.526,18.316
		c-1.903,0-3.772,1.129-5.321,2.354c-0.581-1.42-1.742-2.354-3.291-2.354c-1.74,0-3.449,0.967-4.934,2.063l-0.678-1.967h-4.516
		v16.319h5.226V23.96c0.839-0.645,1.58-1.097,2.226-1.097c0.678,0,1.16,0.42,1.16,1.774v10.095h5.225V23.96
		c0.84-0.645,1.581-1.097,2.227-1.097c0.677,0,1.16,0.42,1.16,1.774v10.095h5.226V23.09
		C108.235,20.38,106.816,18.316,104.526,18.316z M125.521,20.251l-0.645-1.838h-4.516v16.319h5.225V24.153
		c0.968-0.838,2.064-1.516,3.517-1.516c0.838,0,1.031,0.033,1.354,0.097v-4.579h-0.322
		C128.391,18.155,126.778,19.058,125.521,20.251z M149.064,12.092v22.641h5.225V12.092H149.064z M139.647,18.155
		c-2.806,0-5.386,0.451-6.772,0.87v3.968c1.16-0.452,3.418-1.032,5.515-1.032c2.257,0,2.29,1.226,2.29,2.322v0.451
		c-7.483-0.097-9.257,1.193-9.257,5.677c0,3.16,1.935,4.645,4.289,4.645c1.677,0,3.322-0.581,5.064-1.742l0.45,1.419h4.613v-11.61
		C145.84,19.283,143.195,18.155,139.647,18.155z M140.68,30.282c-0.871,0.645-1.903,1.161-2.936,1.161c-1,0-1.29-0.646-1.29-1.613
		c0-1.773,0.419-2.031,4.226-1.902V30.282z M114.233,11.769c-2.063,0-2.87,0.839-2.87,2.773c0,1.903,0.807,2.774,2.87,2.774
		c2.064,0,2.87-0.871,2.87-2.774C117.104,12.607,116.298,11.769,114.233,11.769z M111.621,34.732h5.225V18.413h-5.225V34.732z
		 M12.478,12.328c0.591-1.828,2.082-8.233,5.896-10.431c-8.261-3.65-9.868,0.542-9.17,10.572
		C9.305,13.913,12.152,13.334,12.478,12.328z M23.754,15.521c0.001,0.216,0.082,0.407,0.252,0.463
		c0.028,0.01,0.057,0.014,0.086,0.014c0.217-0.004,0.421-0.219,0.518-0.513c0.024-0.078,0.036-0.155,0.041-0.229
		c0.053,0.037,0.106,0.075,0.158,0.125c0.078,0.076,0.147,0.094,0.191,0.094h0.004c0.015,0,0.025-0.001,0.025-0.001l0.02-0.003
		c0.027-0.001,0.059-0.015,0.086-0.033c0.031-0.017,0.063-0.041,0.092-0.067c0.033-0.032,0.057-0.065,0.075-0.098
		c0.016-0.029,0.028-0.062,0.028-0.1v-0.011c-0.008-0.057-0.034-0.105-0.075-0.145c-0.036-0.037-0.085-0.069-0.136-0.098
		c-0.053-0.029-0.109-0.053-0.158-0.073c-0.053-0.019-0.099-0.035-0.137-0.048c-0.057-0.019-0.11-0.037-0.168-0.052
		c-0.057-0.016-0.111-0.027-0.162-0.037c-0.057-0.009-0.109-0.012-0.157-0.019c-0.055-0.002-0.104-0.002-0.154-0.002h-0.004
		l-0.003,0.001l0,0l0,0l-0.006,0.001c-0.047,0.001-0.08,0.004-0.111,0.008l0,0c-0.036,0.003-0.072,0.01-0.104,0.016
		c-0.045,0.01-0.086,0.021-0.127,0.032c-0.007,0.002-0.02,0.004-0.036,0.01c-0.113,0.036-0.222,0.085-0.321,0.143
		c-0.099,0.058-0.188,0.125-0.27,0.201c-0.08,0.07-0.152,0.146-0.216,0.223c-0.001,0.001-0.003,0.002-0.003,0.002
		c-0.009,0.009-0.014,0.021-0.014,0.033c0,0.002,0,0.003,0,0.005v0.001c0,0.001,0,0.002,0.002,0.003v0.001c0,0,0,0.002,0,0.003
		v0.001l0.002,0.003c0,0.001,0,0.002,0,0.003c0.001,0.001,0.001,0.001,0.002,0.002c0,0,0,0.001,0,0.002l0.002,0.002v0.001
		c0.006,0.008,0.014,0.015,0.023,0.018c0.015,0.006,0.031,0.002,0.043-0.007c0.029-0.014,0.031-0.027,0.081-0.057
		c0.134-0.092,0.419-0.264,0.759-0.297c-0.032,0.058-0.061,0.12-0.082,0.188C23.77,15.33,23.754,15.429,23.754,15.521z
		 M24.176,14.69l0.01,0.001L24.176,14.69L24.176,14.69z M42.269,20.466l-2.794-0.027c0.047-0.115,0.135-0.246,0.223-0.375
		c0.087-0.129,0.17-0.25,0.215-0.361c0.112-0.277,0.293-1.246,0.23-1.709c0.221,0.011,0.72,0.034,1.606,0.075
		c1.315,0.062,3.453,0.161,6.66,0.314l0.104,0.005l-0.001-0.104c-0.008-0.489-0.016-0.839-0.021-1.18
		c-0.007-0.374-0.014-0.741-0.022-1.278c-0.002-0.21-0.006-0.722-0.01-1.203c-0.002-0.394-0.006-0.769-0.007-0.941l-0.003-0.096
		h-0.097c-0.032,0-0.495,0.021-1.452,0.064l-2.516,0.113c-2.651,0.118-4.137,0.178-4.418,0.178l-0.051-0.005h-0.033l-0.035,0.001
		l-0.15,0.001c-0.492,0-0.574-0.049-0.574-0.049c-0.318-0.301-1.664-0.528-3.129-0.528c-0.29,0-0.578,0.01-0.861,0.026
		c-0.764,0.046-1.417,0.19-1.645,0.303c-0.256,0.127-0.435,0.331-0.563,0.644L32.9,14.396c-0.037,0.09-0.074,0.183-0.125,0.266
		c-0.006,0.008-0.034,0.008-0.047,0.008c-0.019,0-0.039-0.001-0.061-0.003c-0.02-0.001-0.039-0.003-0.072-0.003H32.58
		c-2.643,0.105-4.936,0.178-5.705,0.196c0.182-0.226,0.363-0.406,0.417-0.5c0.075-0.132-0.146-1.163-0.163-1.293
		c0.471,0.042,0.807,0.085,0.807,0.085c0.332-2.774,0.611-10.884,0.336-12.444C28.148,0.02,24.65,0,24.615,0
		c-4.828,0-8.564,3.474-11.102,12.095c-0.26,0.878-0.57,2.19-2.738,2.239c-1.109,0.024-1.496-0.269-1.496-0.269
		s0.65,0.858,2.16,1.273c0.377,0.068,1.176,0.141,2.763,0.052c1.664-0.093,2.442-0.383,3.377-0.801c0,0-0.491,0.352-1.286,0.69
		c0.002,0,0.004,0,0.004,0c0.145,0.367,0.15,0.725,0.15,0.725s0.357,0.156,0.512,0.219c0.178,0.073,0.971,0.39,0.971,0.39
		s0.076-0.889,0.725-1.507c0.461-0.439,0.571-0.844,0.689-1.198c2.423-1.624,5.301-1.411,6.445-1.104
		c0.088,0.021,0.211,0.152,0.227,0.195c0.042,0.105,0.398,0.973,0.438,1.161c0.003,0.026-0.673,0.623-0.673,0.623
		s0.124,0.397,0.187,0.572c0.299,0.824,0.738,1.662,1.379,2.63c-0.104,0.062-0.188,0.087-0.268,0.087h-1.02
		c-0.063,0-0.119,0.026-0.162,0.073c-0.096,0.111-0.053,0.271-0.021,0.644c0.042,0.479,0.008,0.643,0.008,0.701
		c-0.012,0.019-0.034,0.051-0.064,0.087c-0.48,0.284-1.095,0.253-1.095,0.253c0.486,0.2,0.798,0.217,0.991,0.182
		c0.016,0.034,0.034,0.066,0.063,0.094h0.001c0.019,0.021,0.082,0.114,0.077,0.184c0,0.013-0.002,0.027-0.006,0.047
		c-0.041,0.13-0.036,0.1-0.111,0.156c-0.066,0.044-0.288,0.124-0.409,0.382c-0.034,0.077-0.046,0.155-0.046,0.223
		c0.029,0.386,0.205,0.579,0.2,1.035c0,0.165-0.026,0.362-0.096,0.597c-0.271,0.34-0.94,0.561-1.255,0.513
		c0,0-3.404-0.321-4.479-0.521c-0.127-0.024-0.895,1.097-2.253,5.865c0.217-6.878-1.306-9.887-1.306-9.887s-0.478,0.149-0.604,0.141
		c-0.813-0.053-0.79-1.014-0.795-1.065c-0.035-0.394-0.227-0.696-0.414-0.988c-0.057-0.091-0.24-0.477-0.304-0.907
		c-1.233,0.14-2.063,0.136-2.615,0.074c-0.029,1.356,0.398,3.145,2.275,4.795c0.036,0.031,0.065,0.055,0.073,0.055
		c0,0,0.002-0.001,0.002-0.004c0.055,0.198,0.063,0.426,0.025,0.694c-0.01,0.067-0.023,0.132-0.043,0.196
		c-0.044,0.016-0.141,0.036-0.18,0.045c-0.032,0.007-0.059,0.013-0.07,0.017c-0.256,0.075-0.521,0.164-0.784,0.263l-0.196,0.072
		c-0.927,0.338-1.539,0.563-2.357,1.203l-0.077,0.059l0.06,0.077c1.673,2.168,2.615,4.711,3.433,7.244
		c-1.584-3.601-2.884-4.763-2.95-4.82l-0.045-0.038l-0.054,0.021c-1.384,0.519-3.606,1.173-4.681,1.446l-0.908,0.227
		c-0.195,0.049-0.855,1.495-0.838,1.961c0.219,5.984,6.051,14.332,15.052,14.332c6.771,0,10.714-4.537,10.753-4.577
		c0,0-0.135-2.303,0.232-3.551c0.049-0.011,1.494-0.012,2.078-0.012c2.187,0,6.314-0.015,7.242-0.015
		c0.439,0,1.381-0.337,1.57-0.508c0.5-0.457,0.797-0.913,0.91-1.393c0.097-0.419,0.087-2.554-0.043-5.299
		c-0.129-2.746-0.203-2.824-0.205-3.043l0.701,0.031C42.301,22.916,42.269,20.466,42.269,20.466z M31.061,26.959
		c-0.398-0.156-0.772-0.328-1.135-0.52c-0.402-0.092-0.824-0.157-1.249-0.196c-0.317-0.027-1.974-0.047-2.101-0.045
		c0.639-1.823,1.465-3.653,1.465-3.653s-1.139-0.304-1.917-0.513c-0.022-0.458-0.167-0.803-0.194-0.904
		c0.018-0.012,0.054-0.034,0.137-0.081c0.141-0.072,0.357-0.273,0.413-0.573c0.014-0.063,0.021-0.124,0.021-0.185
		c-0.004-0.159-0.043-0.288-0.092-0.389c0.105-0.038,0.201-0.089,0.23-0.157c0.053-0.111,0.001-0.226-0.051-0.348
		c-0.037-0.084-0.076-0.171-0.084-0.262l-0.012-0.115c-0.014-0.126-0.031-0.283,0.002-0.318c0.007-0.008,0.027-0.009,0.035-0.009
		c0.22,0,0.478-0.003,0.609-0.005c0.153-0.004,0.475-0.211,0.514-0.237c0.198-0.128,0.402-0.259,0.351-0.47
		c-0.05-0.206-0.489-0.929-0.519-0.992c0.523,0.021,1.473,0.062,2.475,0.101c1.056,0.04,2.009,0.076,2.086,0.081
		c0.114,0.006,0.207,0.01,0.281,0.012c0.115,0.006,0.215,0.009,0.238,0.037c0.02,0.096,0.053,0.265,0.073,0.358
		c0.041,0.205,0.142,0.595,0.212,0.761c0.098,0.234,0.479,0.613,0.783,0.92l0.053,0.052l0.136,0.135
		c0.497,0.497,0.644,0.645,0.73,0.805c-0.009,0.001-0.017,0.001-0.024,0.002l-0.074,0.039l-0.111,0.008l0.02,0.108
		c0.026,0.134,0.084,0.393,0.117,0.643c0.141,1.042,0.268,2.028,0.493,3.732c0.013,0.092,0.278-0.013,0.29,0.082
		c0.118,0.892,0.221,1.928,0.287,3.123C34.102,27.863,32.418,27.495,31.061,26.959z M37.902,20.098
		c-0.759,0.116-1.484,0.109-2.252-0.101c-0.963-0.264-2.262-1.59-2.34-1.724c-0.078-0.133-0.318-1.292-0.257-1.504
		c0.062-0.21,0.997-0.621,1.446-0.753c0,0-0.12-0.018-0.229-0.086c-0.003-0.001-0.005-0.004-0.007-0.007
		c-0.238,0.042-0.582,0.041-0.729-0.124c-0.345-0.383-0.3-1.215-0.21-1.332c0.129-0.165,0.583-0.111,0.852,0.032
		c0.152-0.131,0.727-0.265,0.992-0.011c0.003,0.012,0.005,0.023,0.008,0.035c0.373-0.14,0.734-0.14,0.98,0.062
		c0.039,0.024,0.068,0.067,0.094,0.12c0.02-0.024,0.042-0.045,0.067-0.059c0.257-0.132,0.665-0.101,0.888,0.025
		c0.163,0.094,0.1,1.075-0.131,1.34c-0.139,0.159-0.572,0.17-0.799,0.03c-0.037-0.022-0.068-0.071-0.094-0.134
		c-0.021,0.045-0.042,0.08-0.064,0.104c-0.207,0.169-0.703,0.169-0.93-0.008c-0.026-0.024-0.049-0.061-0.068-0.104
		c0.08,0.411-0.473,1.188-0.955,1.295c0.096,0.279,0.227,0.367,0.344,0.624c0.994,0.165,1.463,0.165,2.221,0.861
		c0.517-0.395,1.957-0.226,2.226,0.365C39.029,19.435,38.664,19.981,37.902,20.098z M25.461,14.733c0.015,0,0.027-0.002,0.027-0.002
		c0.008,0,0.01,0,0.01,0v-0.005l0.01-0.001v0.005l0.012-0.001c0.045-0.004,0.09-0.021,0.136-0.043
		c0.052-0.025,0.103-0.062,0.149-0.099c0.051-0.046,0.092-0.092,0.123-0.136c0.025-0.049,0.043-0.095,0.047-0.143
		c0-0.005,0-0.012,0-0.019c-0.01-0.079-0.051-0.147-0.11-0.202c-0.06-0.054-0.137-0.102-0.218-0.143
		c-0.082-0.045-0.17-0.079-0.254-0.11c-0.084-0.029-0.16-0.055-0.219-0.074c-0.094-0.031-0.184-0.057-0.273-0.079
		c-0.09-0.023-0.18-0.04-0.267-0.055s-0.173-0.021-0.253-0.028c-0.064-0.005-0.125-0.006-0.185-0.006c-0.022,0-0.044,0-0.065,0.001
		h-0.007l-0.003,0.001l-0.007-0.001c-0.067,0.002-0.126,0.007-0.183,0.012l0,0c-0.063,0.005-0.118,0.015-0.172,0.023
		c-0.068,0.013-0.139,0.026-0.203,0.044c-0.021,0.004-0.041,0.011-0.057,0.015c-0.19,0.054-0.365,0.124-0.527,0.21
		c-0.164,0.084-0.315,0.183-0.451,0.293c-0.137,0.106-0.259,0.223-0.366,0.338c-0.001,0-0.002,0.001-0.003,0.002
		c-0.008,0.009-0.014,0.021-0.014,0.033s0.006,0.024,0.014,0.032c0.002,0.001,0.003,0.002,0.004,0.004
		c0.004,0.003,0.008,0.005,0.013,0.007c0.015,0.006,0.032,0.004,0.044-0.006c0.035-0.016,0.057-0.04,0.133-0.083
		c0.248-0.152,0.81-0.455,1.459-0.455c0.433,0,0.903,0.133,1.355,0.536c0.127,0.113,0.23,0.134,0.295,0.134H25.461z"/>
</g>
</svg>
